HIERARCHY
ROOT Hips
{
	OFFSET -0.001795 -0.223333 0.028219
	CHANNELS 6 Xposition Yposition Zposition Zrotation Yrotation Xrotation 
	JOINT LeftUpLeg
	{
		OFFSET 0.069520 -0.091406 -0.006815
		CHANNELS 3 Zrotation Yrotation Xrotation
		JOINT LeftLeg
		{
			OFFSET 0.034277 -0.375199 -0.004496
			CHANNELS 3 Zrotation Yrotation Xrotation
			JOINT LeftFoot
			{
				OFFSET -0.013596 -0.397961 -0.043693
				CHANNELS 3 Zrotation Yrotation Xrotation
				JOINT LeftToe
				{
					OFFSET 0.026358 -0.055791 0.119288
					CHANNELS 3 Zrotation Yrotation Xrotation
					End Site
					{
						OFFSET 0.000000 0.000000 0.000000
					}
				}
			}
		}
	}
	JOINT RightUpLeg
	{
		OFFSET -0.067670 -0.090522 -0.004320
		CHANNELS 3 Zrotation Yrotation Xrotation
		JOINT RightLeg
		{
			OFFSET -0.038290 -0.382569 -0.008850
			CHANNELS 3 Zrotation Yrotation Xrotation
			JOINT RightFoot
			{
				OFFSET 0.015774 -0.398415 -0.042312
				CHANNELS 3 Zrotation Yrotation Xrotation
				JOINT RightToe
				{
					OFFSET -0.025372 -0.048144 0.123348
					CHANNELS 3 Zrotation Yrotation Xrotation
					End Site
					{
						OFFSET 0.000000 0.000000 0.000000
					}
				}
			}
		}
	}
	JOINT Spine
	{
		OFFSET -0.002533 0.108963 -0.026696
		CHANNELS 3 Zrotation Yrotation Xrotation
		JOINT Spine1
		{
			OFFSET 0.005487 0.135180 0.001092
			CHANNELS 3 Zrotation Yrotation Xrotation
			JOINT Spine2
			{
				OFFSET 0.001457 0.052922 0.025425
				CHANNELS 3 Zrotation Yrotation Xrotation
				JOINT Neck
				{
					OFFSET -0.002778 0.213870 -0.042857
					CHANNELS 3 Zrotation Yrotation Xrotation
					JOINT Head
					{
						OFFSET 0.005152 0.064970 0.051349
						CHANNELS 3 Zrotation Yrotation Xrotation
						End Site
						{
							OFFSET 0.000000 0.000000 0.000000
						}
					}
				}
				JOINT LeftShoulder
				{
					OFFSET 0.078845 0.121749 -0.034090
					CHANNELS 3 Zrotation Yrotation Xrotation
					JOINT LeftArm
					{
						OFFSET 0.090977 0.030469 -0.008868
						CHANNELS 3 Zrotation Yrotation Xrotation
						JOINT LeftForeArm
						{
							OFFSET 0.259612 -0.012772 -0.027456
							CHANNELS 3 Zrotation Yrotation Xrotation
							JOINT LeftHand
							{
								OFFSET 0.249234 0.008986 -0.001171
								CHANNELS 3 Zrotation Yrotation Xrotation
								End Site
								{
									OFFSET 0.000000 0.000000 0.000000
								}
							}
						}
					}
				}
				JOINT RightShoulder
				{
					OFFSET -0.081759 0.118833 -0.038615
					CHANNELS 3 Zrotation Yrotation Xrotation
					JOINT RightArm
					{
						OFFSET -0.096012 0.032551 -0.009143
						CHANNELS 3 Zrotation Yrotation Xrotation
						JOINT RightForeArm
						{
							OFFSET -0.253742 -0.013329 -0.021401
							CHANNELS 3 Zrotation Yrotation Xrotation
							JOINT RightHand
							{
								OFFSET -0.255298 0.007772 -0.005559
								CHANNELS 3 Zrotation Yrotation Xrotation
								End Site
								{
									OFFSET 0.000000 0.000000 0.000000
								}
							}
						}
					}
				}
			}
		}
	}
}
MOTION
Frames: 10
Frame Time: 0.05000000
13.088466 0.410470 1.771906 -155.496501 -17.706590 156.744491 -119.017187 -7.838662 -85.637931 141.721466 67.882171 -13.871136 -121.341414 -48.969050 104.847500 0.000000 0.000000 0.000000 -131.368513 25.640741 -76.828603 110.332473 51.502224 -31.112521 -90.500164 -49.147950 108.963733 0.000000 0.000000 0.000000 49.726367 30.207752 55.232615 -0.433146 -0.514264 -21.953128 -29.288518 -38.104334 48.603775 5.556972 3.777908 -15.762053 0.000000 0.000000 0.000000 5.080959 -14.624144 38.690635 -21.424929 -55.499051 21.253374 20.815328 -1.562007 -0.285560 0.000000 0.000000 0.000000 -13.681263 18.764139 -3.045307 46.899883 34.267617 -14.641514 -46.839695 75.325974 -83.940167 0.000000 0.000000 0.000000 
13.402466 0.428781 0.777876 -150.617453 -32.673741 175.812167 -135.302887 -18.505184 -73.621764 146.028133 20.887438 -22.459104 -32.073590 -55.107928 9.046563 0.000000 0.000000 0.000000 179.325553 39.194895 -77.196215 70.810437 32.272107 -99.708689 -72.857001 -50.248723 83.294936 0.000000 0.000000 0.000000 20.477295 5.900062 13.063442 -4.677756 0.175110 -15.967822 -11.037208 -7.844089 41.041252 6.144761 4.842043 -8.921675 0.000000 0.000000 0.000000 -2.876433 -17.449375 41.631572 -12.632476 -49.098720 7.696426 18.084580 -1.068010 -0.280414 0.000000 0.000000 0.000000 -6.411959 24.393257 -13.074732 38.168749 27.219879 -3.471448 -37.836872 63.470779 -55.787825 0.000000 0.000000 0.000000 
13.649283 0.451069 -0.090628 -150.379477 -41.936614 -179.299765 -114.538964 -27.055062 -84.638770 152.177753 -16.112822 -13.482565 -11.616308 -45.703568 -14.060600 0.000000 0.000000 0.000000 177.496311 40.593267 -70.553084 66.356894 19.116991 -110.905880 -81.573585 -44.808950 96.610363 0.000000 0.000000 0.000000 16.853856 2.082791 3.374799 -4.670029 0.973487 -12.234410 -7.400565 -3.666580 41.578545 5.824435 1.219790 -7.217090 0.000000 0.000000 0.000000 -2.833396 -23.401887 35.226289 -16.922856 -43.087239 6.969737 20.093984 -5.562181 -0.936767 0.000000 0.000000 0.000000 -2.735387 30.356131 -7.251857 24.307198 28.431805 -1.533161 -36.000169 45.300869 -35.189839 0.000000 0.000000 0.000000 
13.815360 0.470926 -0.973402 -151.331753 -51.194156 -172.431043 -99.821382 -27.161803 -89.856458 146.618507 -45.852773 -3.919185 -7.800832 -26.149586 -9.479068 0.000000 0.000000 0.000000 -177.648519 40.290844 -61.653539 68.935366 14.767710 -114.529532 -84.664922 -42.796620 99.057732 0.000000 0.000000 0.000000 15.308619 1.848750 -6.457433 -4.764485 1.670278 -9.296084 -5.988622 -2.816326 41.473213 8.293413 -0.727174 -3.184862 0.000000 0.000000 0.000000 -2.552177 -26.177436 29.611362 -16.016982 -40.960248 5.640687 19.576041 -6.311566 -0.944627 0.000000 0.000000 0.000000 4.640014 35.307677 -7.813665 18.922598 21.837025 0.572770 -26.934914 38.755696 -20.532352 0.000000 0.000000 0.000000 
13.895490 0.493397 -1.866805 -157.802870 -54.320478 -161.746950 -85.234183 -21.574276 -98.027710 131.577028 -54.550988 10.788316 -8.613319 -32.512962 -8.093545 0.000000 0.000000 0.000000 -177.154300 36.279958 -58.318644 68.929947 11.961444 -117.398357 -94.071450 -43.750964 100.574755 0.000000 0.000000 0.000000 12.211213 3.167800 -13.491660 -2.697184 1.430470 -8.712222 -5.199503 -4.521221 43.229768 11.722994 2.844948 7.538986 0.000000 0.000000 0.000000 -6.822488 -24.349864 31.027099 -8.473693 -41.020831 2.047294 20.693653 -6.801519 -1.140538 0.000000 0.000000 0.000000 11.862538 39.148329 -12.479547 11.795840 18.770490 0.676076 -11.181969 34.874953 -7.914214 0.000000 0.000000 0.000000 
13.897273 0.526379 -2.809590 -164.130164 -50.526666 -152.701082 -78.171513 -11.548353 -101.917151 130.329366 -38.596772 10.567654 -15.020464 -60.261603 -9.122168 0.000000 0.000000 0.000000 174.329967 34.694612 -61.519635 65.685357 7.098068 -124.432765 -103.439709 -40.388579 108.129392 0.000000 0.000000 0.000000 9.193372 6.905405 -19.454370 0.475099 1.259724 -8.434278 -6.807490 -7.039463 44.043593 19.626122 5.932920 17.611329 0.000000 0.000000 0.000000 -5.563041 -20.678840 30.113730 -8.030597 -39.099516 1.990722 24.897865 -6.659615 -0.828264 0.000000 0.000000 0.000000 15.107652 41.035073 -19.284120 9.116787 11.569543 1.457070 1.178038 35.781753 -2.496001 0.000000 0.000000 0.000000 
13.907394 0.567683 -3.769535 -168.010950 -46.127759 -144.839108 -73.110232 0.608250 -103.481338 125.083701 -22.138884 12.520638 -93.728768 -81.965281 62.977502 0.000000 0.000000 0.000000 160.899361 36.269929 -67.684135 59.921509 -2.385898 -136.303125 -109.679713 -32.791513 117.349360 0.000000 0.000000 0.000000 5.189789 13.266245 -24.718023 2.000565 0.689281 -10.979625 -12.014408 -14.596261 46.854753 21.493044 8.884698 12.146841 0.000000 0.000000 0.000000 2.128646 -16.274153 29.562105 -16.047885 -38.230501 7.024156 32.686925 -8.222298 -0.021401 0.000000 0.000000 0.000000 7.507991 37.196768 -19.878936 18.389462 9.821177 1.607297 3.919594 40.789148 -6.450594 0.000000 0.000000 0.000000 
13.930102 0.623539 -4.656401 -171.503775 -38.411798 -140.873580 -70.235027 11.625150 -97.627881 122.109211 -0.374573 15.986028 -132.074060 -66.186128 98.945148 0.000000 0.000000 0.000000 156.842238 29.604137 -73.210000 50.738009 -16.093666 -134.887106 -110.791469 -22.353404 131.213639 0.000000 0.000000 0.000000 1.912715 17.878566 -27.203807 2.492350 0.702502 -12.420132 -14.200534 -18.208341 47.353243 19.947629 12.622838 5.557256 0.000000 0.000000 0.000000 4.964676 -9.623681 33.068198 -20.380861 -41.294054 11.979785 32.747168 -7.878134 0.668407 0.000000 0.000000 0.000000 0.498207 29.899581 -22.491715 29.377802 4.447707 -2.363330 14.648958 42.939566 -7.813529 0.000000 0.000000 0.000000 
13.937209 0.677742 -5.386458 -173.587402 -29.352822 -139.658707 -84.447701 9.205729 -98.264206 125.858205 24.983820 6.175559 -107.007692 -31.144932 96.292939 0.000000 0.000000 0.000000 162.330828 21.691946 -80.010210 22.391690 -32.059542 -111.075737 -133.880918 -7.262644 149.678198 0.000000 0.000000 0.000000 -3.954311 22.097296 -29.864943 3.395364 0.924529 -13.767614 -16.084763 -21.980234 47.611447 20.999538 17.608918 0.690467 0.000000 0.000000 0.000000 10.981129 -1.513950 37.076032 -25.932513 -49.515725 24.557830 33.880870 -4.118736 2.417853 0.000000 0.000000 0.000000 -6.144140 26.488399 -29.826057 41.585692 -6.922216 -14.330698 31.396240 36.992865 -6.887075 0.000000 0.000000 0.000000 
13.923978 0.739363 -5.955635 -175.441295 -25.487049 -139.309988 -101.351386 2.664187 -96.712012 117.470996 44.648627 -12.042910 -93.749575 -18.269445 94.895449 0.000000 0.000000 0.000000 -172.160252 18.642721 -86.083837 -4.947237 -13.694346 -83.311827 -136.702296 2.864333 157.279952 0.000000 0.000000 0.000000 -7.492788 23.144417 -30.823290 3.917616 0.879458 -15.704662 -16.215868 -25.017896 46.880604 15.573322 16.468475 -9.088388 0.000000 0.000000 0.000000 12.767463 4.623279 35.857221 -34.939782 -51.825040 36.760662 36.160546 -14.267257 1.048703 0.000000 0.000000 0.000000 -12.775558 19.344732 -32.333216 53.860226 -15.555767 -34.578754 45.832823 25.583708 -9.997541 0.000000 0.000000 0.000000 
